<svg width="37" height="40" viewBox="0 0 37 40" fill="none" xmlns="http://www.w3.org/2000/svg">
<line x1="6.5" y1="19" x2="22.5" y2="19" stroke="#5A94D3" stroke-width="3"/>
<line x1="20.5" y1="8" x2="36.5" y2="8" stroke="#5A94D3" stroke-width="3"/>
<line x1="28.5" y1="6.55671e-08" x2="28.5" y2="16" stroke="#5A94D3" stroke-width="3"/>
<line x1="6.5" y1="28" x2="22.5" y2="28" stroke="#5A94D3" stroke-width="3"/>
<path fill-rule="evenodd" clip-rule="evenodd" d="M18 6.5H5C2.23858 6.5 0 8.73858 0 11.5V34.5C0 37.2614 2.23858 39.5 5 39.5H25C27.7614 39.5 30 37.2614 30 34.5V18.5H27V34.5C27 35.6046 26.1046 36.5 25 36.5H5C3.89543 36.5 3 35.6046 3 34.5V11.5C3 10.3954 3.89543 9.5 5 9.5H18V6.5Z" fill="#5A94D3"/>
</svg>
